<?xml version="1.0" encoding="UTF-8" standalone="no"?>
<!-- Created with Inkscape (http://www.inkscape.org/) -->

<svg
    xmlns:cc="http://creativecommons.org/ns#"
    xmlns:dc="http://purl.org/dc/elements/1.1/"
    xmlns:inkscape="http://www.inkscape.org/namespaces/inkscape"
    xmlns:rdf="http://www.w3.org/1999/02/22-rdf-syntax-ns#"
    xmlns:sodipodi="http://sodipodi.sourceforge.net/DTD/sodipodi-0.dtd"
    height="238"
    id="svg3369"
    version="1.1"
    viewBox="0 0 60 238"
    width="60"
    xmlns="http://www.w3.org/2000/svg"
    inkscape:version="0.91 r13725"
    sodipodi:docname="acro+.svg">
    <defs
        id="defs3371"/>
    <sodipodi:namedview
        bordercolor="#666666"
        borderopacity="1.0"
        id="base"
        pagecolor="#ffffff"
        showgrid="false"
        units="px"
        inkscape:current-layer="text3439"
        inkscape:cx="649.97134"
        inkscape:cy="223.61948"
        inkscape:document-units="px"
        inkscape:pageopacity="0.0"
        inkscape:pageshadow="2"
        inkscape:window-height="1017"
        inkscape:window-maximized="1"
        inkscape:window-width="1920"
        inkscape:window-x="-8"
        inkscape:window-y="-8"
        inkscape:zoom="1"/>
    <metadata
        id="metadata3374">
        <rdf:RDF>
            <cc:Work
                rdf:about="">
                <dc:format>image/svg+xml</dc:format>
                <dc:type
                    rdf:resource="http://purl.org/dc/dcmitype/StillImage"/>
                <dc:title></dc:title>
            </cc:Work>
        </rdf:RDF>
    </metadata>
    <g
        id="layer1"
        transform="translate(0,-814.3622)"
        inkscape:groupmode="layer"
        inkscape:label="Ebene 1">
        <g
            style="font-style:normal;font-weight:normal;font-size:625px;line-height:125%;font-family:sans-serif;letter-spacing:0px;word-spacing:0px;fill:#000000;fill-opacity:1;stroke:none;stroke-width:1px;stroke-linecap:butt;stroke-linejoin:miter;stroke-opacity:1"
            id="text3439"
            transform="matrix(0,-0.10159188,0.12934737,0,-8.8042106,947.20181)">
            <g
                style="font-style:normal;font-weight:normal;font-size:705.2276001px;line-height:125%;font-family:sans-serif;letter-spacing:0px;word-spacing:0px;fill:#000000;fill-opacity:1;stroke:none;stroke-width:1px;stroke-linecap:butt;stroke-linejoin:miter;stroke-opacity:1"
                id="text3415"
                transform="scale(1.1283642,0.88623868)">
                <path
                    style=""
                    d="m -452.95601,589.53998 -72.65772,0 -50.27502,-142.90501 -221.76102,0 -50.27502,142.90501 -69.21423,0 186.63739,-512.73628 90.90824,0 186.63738,512.73628 z m -143.93805,-201.44441 -89.8752,-251.71942 -90.21955,251.71942 180.09475,0 z"
                    id="path3420"/>
                <path
                    style=""
                    d="m -95.865672,565.43552 q -32.368848,15.49572 -61.638548,24.10446 -28.92535,8.60873 -61.63854,8.60873 -41.66628,0 -76.44557,-12.05223 -34.77929,-12.39658 -59.57245,-37.18973 -25.13751,-24.79316 -38.91148,-62.6716 -13.77398,-37.87843 -13.77398,-88.4978 0,-94.35174 51.65241,-148.07024 51.99676,-53.71851 137.05107,-53.71851 33.05754,0 64.73769,9.29743 32.02449,9.29744 58.539398,22.72706 l 0,71.96903 -3.443494,0 q -29.614054,-23.07141 -61.294194,-35.46799 -31.3358,-12.39658 -61.2942,-12.39658 -55.0959,0 -87.1204,37.18974 -31.68015,36.84539 -31.68015,108.47006 0,69.55859 30.99145,107.09267 31.3358,37.18974 87.8091,37.18974 19.62792,0 39.94453,-5.16524 20.31662,-5.16524 36.50104,-13.42963 14.11833,-7.23134 26.51491,-15.15137 12.39658,-8.26439 19.627914,-14.11833 l 3.443494,0 0,71.28033 z"
                    id="path3422"/>
                <path
                    style=""
                    d="m 227.47845,275.49331 -3.44349,0 q -14.46268,-3.44349 -28.23665,-4.82089 -13.42963,-1.72175 -32.0245,-1.72175 -29.9584,0 -57.8507,13.42963 -27.892304,13.08528 -53.71851,34.09059 l 0,273.06909 -64.73769,0 0,-384.6383 64.73769,0 0,56.81766 q 38.567134,-30.99145 67.83683,-43.73238 29.61405,-13.08528 60.26115,-13.08528 16.87312,0 24.44881,1.03305 7.57569,0.6887 22.72706,3.09915 l 0,66.45943 z"
                    id="path3424"/>
                <path
                    style=""
                    d="m 616.93758,397.393 q 0,94.0074 -48.20892,148.4146 -48.20892,54.40721 -129.13103,54.40721 -81.61081,0 -129.81973,-54.40721 -47.86457,-54.4072 -47.86457,-148.4146 0,-94.00739 47.86457,-148.41459 48.20892,-54.75156 129.81973,-54.75156 80.92211,0 129.13103,54.75156 48.20892,54.4072 48.20892,148.41459 z m -66.80379,0 q 0,-74.72382 -29.2697,-110.88051 -29.2697,-36.50103 -81.26646,-36.50103 -52.68546,0 -81.95516,36.50103 -28.92535,36.15669 -28.92535,110.88051 0,72.31338 29.2697,109.84747 29.2697,37.18973 81.61081,37.18973 51.65241,0 80.92211,-36.84538 29.61405,-37.18974 29.61405,-110.19182 z"
                    id="path3426"/>
                <path
                    style=""
                    d="m 1158.5993,392.57211 -187.67047,0 0,187.67043 -57.162,0 0,-187.67043 -187.67043,0 0,-55.0959 187.67043,0 0,-187.67043 57.162,0 0,187.67043 187.67047,0 0,55.0959 z"
                    id="path3428"/>
            </g>
        </g>
    </g>
</svg>
