<?xml version="1.0" encoding="UTF-8" standalone="no"?>
<!-- Created with Inkscape (http://www.inkscape.org/) -->

<svg
    xmlns:cc="http://creativecommons.org/ns#"
    xmlns:dc="http://purl.org/dc/elements/1.1/"
    xmlns:inkscape="http://www.inkscape.org/namespaces/inkscape"
    xmlns:rdf="http://www.w3.org/1999/02/22-rdf-syntax-ns#"
    xmlns:sodipodi="http://sodipodi.sourceforge.net/DTD/sodipodi-0.dtd"
    height="490"
    id="svg3369"
    version="1.1"
    viewBox="0 0 60 490.00001"
    width="60"
    xmlns="http://www.w3.org/2000/svg"
    inkscape:version="0.91 r13725"
    sodipodi:docname="responsiveness.svg">
    <defs
        id="defs3371"/>
    <sodipodi:namedview
        bordercolor="#666666"
        borderopacity="1.0"
        id="base"
        pagecolor="#ffffff"
        showgrid="false"
        units="px"
        inkscape:current-layer="layer1"
        inkscape:cx="645"
        inkscape:cy="205.71429"
        inkscape:document-units="px"
        inkscape:pageopacity="0.0"
        inkscape:pageshadow="2"
        inkscape:window-height="1017"
        inkscape:window-maximized="1"
        inkscape:window-width="1920"
        inkscape:window-x="-8"
        inkscape:window-y="-8"
        inkscape:zoom="1"/>
    <metadata
        id="metadata3374">
        <rdf:RDF>
            <cc:Work
                rdf:about="">
                <dc:format>image/svg+xml</dc:format>
                <dc:type
                    rdf:resource="http://purl.org/dc/dcmitype/StillImage"/>
                <dc:title></dc:title>
            </cc:Work>
        </rdf:RDF>
    </metadata>
    <g
        id="layer1"
        transform="translate(0,-562.3622)"
        inkscape:groupmode="layer"
        inkscape:label="Ebene 1">
        <g
            style="font-style:normal;font-weight:normal;font-size:625px;line-height:125%;font-family:sans-serif;letter-spacing:0px;word-spacing:0px;fill:#000000;fill-opacity:1;stroke:none;stroke-width:1px;stroke-linecap:butt;stroke-linejoin:miter;stroke-opacity:1"
            id="text3377"
            transform="matrix(0,-0.10106578,0.10288227,0,-47.404724,1054.9734)">
            <path
                d="m 401.81274,918.22522 -78.43017,0 -151.97754,-180.66406 -85.144044,0 0,180.66406 -60.424804,0 0,-454.40674 127.258298,0 q 41.19873,0 68.66455,5.49317 27.46582,5.18798 49.43848,18.92089 24.71924,15.56397 38.45215,39.36768 14.03808,23.49853 14.03808,59.81445 0,49.1333 -24.71923,82.39746 -24.71924,32.95899 -68.0542,49.74366 L 401.81274,918.22522 Z M 260.51636,591.68713 q 0,-19.53125 -7.01905,-34.48486 -6.71386,-15.25879 -22.583,-25.63477 -13.12256,-8.85009 -31.12793,-12.20703 -18.00537,-3.66211 -42.41944,-3.66211 l -71.105954,0 0,171.50879 61.035154,0 q 28.68653,0 50.04883,-4.88281 21.36231,-5.18799 36.31592,-18.9209 13.73291,-12.81738 20.1416,-29.29687 6.71387,-16.78467 6.71387,-42.41944 z"
                id="path3411"
                inkscape:connector-curvature="0"/>
            <path
                d="m 726.51978,753.73547 -251.15967,0 q 0,31.43311 9.46045,54.93164 9.46045,23.19336 25.93994,38.14698 15.86914,14.64843 37.53662,21.97265 21.97266,7.32422 48.21777,7.32422 34.79004,0 69.88526,-13.73291 35.40039,-14.03808 50.354,-27.46582 l 3.05176,0 0,62.56104 q -28.9917,12.20703 -59.2041,20.44677 -30.21241,8.23975 -63.47657,8.23975 -84.83886,0 -132.44628,-45.77637 -47.60743,-46.08154 -47.60743,-130.61523 0,-83.61817 45.47119,-132.75147 45.77637,-49.1333 120.23926,-49.1333 68.96973,0 106.20117,40.28321 37.53663,40.2832 37.53663,114.44091 l 0,31.12793 z m -55.84717,-43.94531 q -0.30518,-45.16601 -22.88819,-69.88525 -22.27783,-24.71924 -68.0542,-24.71924 -46.08154,0 -73.54736,27.16064 -27.16064,27.16065 -30.82275,67.44385 l 195.3125,0 z"
                id="path3413"
                inkscape:connector-curvature="0"/>
            <path
                d="m 1057.0251,819.95862 q 0,46.69189 -38.7573,76.59912 -38.45213,29.90723 -105.28562,29.90723 -37.8418,0 -69.58008,-8.8501 -31.43311,-9.15528 -52.79541,-19.83643 l 0,-64.39209 3.05176,0 q 27.16064,20.44678 60.4248,32.65381 33.26416,11.90186 63.78174,11.90186 37.8418,0 59.2041,-12.20703 21.36231,-12.20704 21.36231,-38.45215 0,-20.1416 -11.59668,-30.51758 -11.59668,-10.37598 -44.55567,-17.7002 -12.20703,-2.74658 -32.04345,-6.40869 -19.53125,-3.66211 -35.70557,-7.93457 -44.86084,-11.90185 -63.78174,-34.79004 -18.61572,-23.19336 -18.61572,-56.76269 0,-21.05713 8.54492,-39.67285 8.8501,-18.61573 26.55029,-33.26416 17.08985,-14.34327 43.33496,-22.58301 26.5503,-8.54492 59.20411,-8.54492 30.51757,0 61.6455,7.62939 31.43315,7.32422 52.18505,18.00537 l 0,61.34033 -3.0517,0 q -21.9727,-16.17431 -53.40581,-27.16064 -31.4331,-11.2915 -61.64551,-11.2915 -31.4331,0 -53.10058,12.20703 -21.66748,11.90185 -21.66748,35.70556 0,21.05713 13.12256,31.73828 12.81738,10.68116 41.5039,17.39502 15.86914,3.66211 35.40039,7.32422 19.83643,3.66211 32.95899,6.71387 39.97804,9.15527 61.64554,31.43311 21.6674,22.583 21.6674,59.81445 z"
                id="path3415"
                inkscape:connector-curvature="0"/>
            <path
                d="m 1439.4104,743.66467 q 0,41.50391 -11.9019,75.98877 -11.9018,34.17969 -33.5693,57.9834 -20.1416,22.58301 -47.6074,35.09522 -27.1607,12.20703 -57.6782,12.20703 -26.5503,0 -48.2178,-5.79834 -21.3623,-5.79834 -43.6401,-18.00537 l 0,142.82222 -57.3731,0 0,-466.61373 57.3731,0 0,35.70557 q 22.8881,-19.22608 51.2695,-32.04346 28.6865,-13.12256 61.0351,-13.12256 61.6455,0 95.8252,46.6919 34.4849,46.38672 34.4849,129.08935 z m -59.2041,1.52588 q 0,-61.64551 -21.0571,-92.16308 -21.0572,-30.51758 -64.6973,-30.51758 -24.7192,0 -49.7436,10.68115 -25.0245,10.68115 -47.9126,28.07617 l 0,193.17627 q 24.414,10.98633 41.809,14.95361 17.7002,3.96729 39.9781,3.96729 47.9126,0 74.768,-32.34863 26.8555,-32.34864 26.8555,-95.8252 z"
                id="path3417"
                inkscape:connector-curvature="0"/>
            <path
                d="m 1819.3542,747.93713 q 0,83.31299 -42.7246,131.53077 -42.7246,48.21777 -114.4409,48.21777 -72.3266,0 -115.0512,-48.21777 -42.4195,-48.21778 -42.4195,-131.53077 0,-83.31298 42.4195,-131.53076 42.7246,-48.52295 115.0512,-48.52295 71.7163,0 114.4409,48.52295 42.7246,48.21778 42.7246,131.53076 z m -59.2041,0 q 0,-66.22314 -25.9399,-98.2666 -25.9399,-32.34863 -72.0215,-32.34863 -46.6919,0 -72.6318,32.34863 -25.6348,32.04346 -25.6348,98.2666 0,64.08692 25.94,97.35108 25.9399,32.95898 72.3266,32.95898 45.7764,0 71.7163,-32.65381 26.2451,-32.95898 26.2451,-97.65625 z"
                id="path3419"
                inkscape:connector-curvature="0"/>
            <path
                d="m 2193.4998,918.22522 -57.3731,0 0,-194.0918 q 0,-23.49853 -2.7466,-43.94531 -2.7466,-20.75195 -10.0708,-32.34863 -7.6294,-12.81739 -21.9726,-18.9209 -14.3433,-6.40869 -37.2315,-6.40869 -23.4985,0 -49.1333,11.59668 -25.6347,11.59668 -49.1333,29.60205 l 0,254.5166 -57.373,0 0,-340.88135 57.373,0 0,37.8418 q 26.8555,-22.27783 55.542,-34.79004 28.6865,-12.51221 58.8989,-12.51221 55.2369,0 84.2286,33.26416 28.9917,33.26416 28.9917,95.8252 l 0,221.25244 z"
                id="path3421"
                inkscape:connector-curvature="0"/>
            <path
                d="m 2547.5037,819.95862 q 0,46.69189 -38.7574,76.59912 -38.4521,29.90723 -105.2856,29.90723 -37.8418,0 -69.5801,-8.8501 -31.4331,-9.15528 -52.7954,-19.83643 l 0,-64.39209 3.0518,0 q 27.1606,20.44678 60.4248,32.65381 33.2641,11.90186 63.7817,11.90186 37.8418,0 59.2041,-12.20703 21.3623,-12.20704 21.3623,-38.45215 0,-20.1416 -11.5967,-30.51758 -11.5966,-10.37598 -44.5556,-17.7002 -12.2071,-2.74658 -32.0435,-6.40869 -19.5312,-3.66211 -35.7056,-7.93457 -44.8608,-11.90185 -63.7817,-34.79004 -18.6157,-23.19336 -18.6157,-56.76269 0,-21.05713 8.5449,-39.67285 8.8501,-18.61573 26.5503,-33.26416 17.0898,-14.34327 43.335,-22.58301 26.5503,-8.54492 59.2041,-8.54492 30.5175,0 61.6455,7.62939 31.4331,7.32422 52.185,18.00537 l 0,61.34033 -3.0517,0 q -21.9727,-16.17431 -53.4058,-27.16064 -31.4331,-11.2915 -61.6455,-11.2915 -31.4331,0 -53.1006,12.20703 -21.6675,11.90185 -21.6675,35.70556 0,21.05713 13.1226,31.73828 12.8174,10.68116 41.5039,17.39502 15.8691,3.66211 35.4004,7.32422 19.8364,3.66211 32.959,6.71387 39.978,9.15527 61.6455,31.43311 21.6675,22.583 21.6675,59.81445 z"
                id="path3423"
                inkscape:connector-curvature="0"/>
            <path
                d="m 2691.5466,520.276 -64.6972,0 0,-59.50928 64.6972,0 0,59.50928 z m -3.6621,397.94922 -57.373,0 0,-340.88135 57.373,0 0,340.88135 z"
                id="path3425"
                inkscape:connector-curvature="0"/>
            <path
                d="m 3094.3787,577.34387 -137.9395,340.88135 -57.6782,0 -137.0239,-340.88135 62.2558,0 105.5908,271.30127 104.6753,-271.30127 60.1197,0 z"
                id="path3427"
                inkscape:connector-curvature="0"/>
            <path
                d="m 3449.9084,753.73547 -251.1596,0 q 0,31.43311 9.4604,54.93164 9.4605,23.19336 25.94,38.14698 15.8691,14.64843 37.5366,21.97265 21.9726,7.32422 48.2178,7.32422 34.79,0 69.8852,-13.73291 35.4004,-14.03808 50.354,-27.46582 l 3.0518,0 0,62.56104 q -28.9917,12.20703 -59.2041,20.44677 -30.2124,8.23975 -63.4766,8.23975 -84.8389,0 -132.4463,-45.77637 -47.6074,-46.08154 -47.6074,-130.61523 0,-83.61817 45.4712,-132.75147 45.7764,-49.1333 120.2393,-49.1333 68.9697,0 106.2011,40.28321 37.5366,40.2832 37.5366,114.44091 l 0,31.12793 z m -55.8471,-43.94531 q -0.3052,-45.16601 -22.8882,-69.88525 -22.2778,-24.71924 -68.0542,-24.71924 -46.0815,0 -73.5474,27.16064 -27.1606,27.16065 -30.8227,67.44385 l 195.3125,0 z"
                id="path3429"
                inkscape:connector-curvature="0"/>
            <path
                d="m 3821.9177,918.22522 -57.373,0 0,-194.0918 q 0,-23.49853 -2.7466,-43.94531 -2.7466,-20.75195 -10.0708,-32.34863 -7.6294,-12.81739 -21.9727,-18.9209 -14.3432,-6.40869 -37.2314,-6.40869 -23.4985,0 -49.1333,11.59668 -25.6348,11.59668 -49.1333,29.60205 l 0,254.5166 -57.3731,0 0,-340.88135 57.3731,0 0,37.8418 q 26.8555,-22.27783 55.542,-34.79004 28.6865,-12.51221 58.8989,-12.51221 55.2368,0 84.2285,33.26416 28.9917,33.26416 28.9917,95.8252 l 0,221.25244 z"
                id="path3431"
                inkscape:connector-curvature="0"/>
            <path
                d="m 4217.7307,753.73547 -251.1597,0 q 0,31.43311 9.4605,54.93164 9.4604,23.19336 25.9399,38.14698 15.8692,14.64843 37.5367,21.97265 21.9726,7.32422 48.2177,7.32422 34.7901,0 69.8853,-13.73291 35.4004,-14.03808 50.354,-27.46582 l 3.0517,0 0,62.56104 q -28.9917,12.20703 -59.2041,20.44677 -30.2124,8.23975 -63.4765,8.23975 -84.8389,0 -132.4463,-45.77637 -47.6074,-46.08154 -47.6074,-130.61523 0,-83.61817 45.4712,-132.75147 45.7763,-49.1333 120.2392,-49.1333 68.9697,0 106.2012,40.28321 37.5366,40.2832 37.5366,114.44091 l 0,31.12793 z m -55.8472,-43.94531 q -0.3051,-45.16601 -22.8881,-69.88525 -22.2779,-24.71924 -68.0542,-24.71924 -46.0816,0 -73.5474,27.16064 -27.1606,27.16065 -30.8228,67.44385 l 195.3125,0 z"
                id="path3433"
                inkscape:connector-curvature="0"/>
            <path
                d="m 4548.2361,819.95862 q 0,46.69189 -38.7573,76.59912 -38.4522,29.90723 -105.2857,29.90723 -37.8418,0 -69.5801,-8.8501 -31.4331,-9.15528 -52.7954,-19.83643 l 0,-64.39209 3.0518,0 q 27.1606,20.44678 60.4248,32.65381 33.2641,11.90186 63.7817,11.90186 37.8418,0 59.2041,-12.20703 21.3623,-12.20704 21.3623,-38.45215 0,-20.1416 -11.5966,-30.51758 -11.5967,-10.37598 -44.5557,-17.7002 -12.207,-2.74658 -32.0435,-6.40869 -19.5312,-3.66211 -35.7055,-7.93457 -44.8609,-11.90185 -63.7818,-34.79004 -18.6157,-23.19336 -18.6157,-56.76269 0,-21.05713 8.5449,-39.67285 8.8501,-18.61573 26.5503,-33.26416 17.0899,-14.34327 43.335,-22.58301 26.5503,-8.54492 59.2041,-8.54492 30.5176,0 61.6455,7.62939 31.4331,7.32422 52.185,18.00537 l 0,61.34033 -3.0517,0 q -21.9727,-16.17431 -53.4058,-27.16064 -31.4331,-11.2915 -61.6455,-11.2915 -31.4331,0 -53.1006,12.20703 -21.6674,11.90185 -21.6674,35.70556 0,21.05713 13.1225,31.73828 12.8174,10.68116 41.5039,17.39502 15.8692,3.66211 35.4004,7.32422 19.8364,3.66211 32.959,6.71387 39.978,9.15527 61.6455,31.43311 21.6675,22.583 21.6675,59.81445 z"
                id="path3435"
                inkscape:connector-curvature="0"/>
            <path
                d="m 4874.1638,819.95862 q 0,46.69189 -38.7573,76.59912 -38.4522,29.90723 -105.2857,29.90723 -37.8417,0 -69.58,-8.8501 -31.4331,-9.15528 -52.7954,-19.83643 l 0,-64.39209 3.0517,0 q 27.1607,20.44678 60.4248,32.65381 33.2642,11.90186 63.7818,11.90186 37.8418,0 59.2041,-12.20703 21.3623,-12.20704 21.3623,-38.45215 0,-20.1416 -11.5967,-30.51758 -11.5967,-10.37598 -44.5557,-17.7002 -12.207,-2.74658 -32.0434,-6.40869 -19.5313,-3.66211 -35.7056,-7.93457 -44.8608,-11.90185 -63.7817,-34.79004 -18.6158,-23.19336 -18.6158,-56.76269 0,-21.05713 8.545,-39.67285 8.8501,-18.61573 26.5503,-33.26416 17.0898,-14.34327 43.3349,-22.58301 26.5503,-8.54492 59.2041,-8.54492 30.5176,0 61.6455,7.62939 31.4331,7.32422 52.1851,18.00537 l 0,61.34033 -3.0518,0 q -21.9726,-16.17431 -53.4057,-27.16064 -31.4331,-11.2915 -61.6455,-11.2915 -31.4331,0 -53.1006,12.20703 -21.6675,11.90185 -21.6675,35.70556 0,21.05713 13.1225,31.73828 12.8174,10.68116 41.504,17.39502 15.8691,3.66211 35.4003,7.32422 19.8365,3.66211 32.959,6.71387 39.9781,9.15527 61.6455,31.43311 21.6675,22.583 21.6675,59.81445 z"
                id="path3437"
                inkscape:connector-curvature="0"/>
        </g>
    </g>
</svg>
